
<svg xmlns="http://www.w3.org/2000/svg" version="1.1" xmlns:xlink="http://www.w3.org/1999/xlink" preserveAspectRatio="none" x="0px" y="0px" width="53px" height="53px" viewBox="0 0 53 53">
<defs>
<g id="Layer3_0_FILL">
<path fill="#000000" fill-opacity="0.09803921568627451" stroke="none" d="
M 31.5 -0.5
L 17.45 -0.5
Q 10 -0.5 4.7 4.75 -0.55 10.05 -0.55 17.5
L -0.55 31.5
Q -0.55 38.95 4.7 44.2 10 49.5 17.45 49.5
L 31.5 49.5
Q 38.95 49.5 44.2 44.2 49.5 38.95 49.5 31.5
L 49.5 17.5
Q 49.5 10.05 44.2 4.75 38.95 -0.5 31.5 -0.5 Z"/>
</g>

<g id="buttons_bFullScreen_0_Layer0_0_MEMBER_0_FILL">
<path fill="#FFFFFF" stroke="none" d="
M 87.5 31.75
Q 85.25 29.5 82.1 29.5
L 51.05 29.5 51.05 4.15
Q 51.05 1.4 48.5 0.35 45.95 -0.7 44 1.25
L 1.95 43.25
Q 0 45.2 0 48 0 50.75 1.95 52.7
L 44 94.7
Q 45.95 96.65 48.5 95.6 51.05 94.55 51.05 91.8
L 51.05 66.45 82.1 66.45
Q 85.25 66.45 87.5 64.25 89.75 62 89.75 58.85
L 89.75 37.1
Q 89.75 33.95 87.5 31.75 Z"/>
</g>

<g id="buttons_bFullScreen_0_Layer0_0_MEMBER_1_FILL">
<path fill="#FFFFFF" stroke="none" d="
M 87.5 31.75
Q 85.25 29.5 82.1 29.5
L 51.05 29.5 51.05 4.15
Q 51.05 1.4 48.5 0.35 45.95 -0.7 44 1.25
L 1.95 43.25
Q 0 45.2 0 48 0 50.75 1.95 52.7
L 44 94.7
Q 45.95 96.65 48.5 95.6 51.05 94.55 51.05 91.8
L 51.05 66.45 82.1 66.45
Q 85.25 66.45 87.5 64.25 89.75 62 89.75 58.85
L 89.75 37.1
Q 89.75 33.95 87.5 31.75 Z"/>
</g>

<path id="Layer3_0_1_STROKES" stroke="#FFFFFF" stroke-width="3" stroke-linejoin="round" stroke-linecap="round" fill="none" d="
M 19.48642044067383 1.5
L 33.52548675537109 1.5
Q 40.969689178466794 1.5 46.21560363769531 6.75 51.511479187011716 12.05 51.511479187011716 19.5
L 51.511479187011716 33.5
Q 51.511479187011716 40.95 46.21560363769531 46.2 40.969689178466794 51.5 33.52548675537109 51.5
L 19.48642044067383 51.5
Q 12.042218017578126 51.5 6.746342468261719 46.2 1.500428009033203 40.95 1.500428009033203 33.5
L 1.500428009033203 19.5
Q 1.500428009033203 12.05 6.746342468261719 6.75 12.042218017578126 1.5 19.48642044067383 1.5 Z"/>
</defs>

<g transform="matrix( 0.9992218017578125, 0, 0, 1, 2.05,2) ">
<use xlink:href="#Layer3_0_FILL"/>

<use xlink:href="#Layer3_0_1_STROKES" transform="matrix( 1.0007781982421875, 0, 0, 1, -2.05,-2) "/>
</g>

<g id="mc_off" transform="matrix( 1, 0, 0, 1, 11.2,11.25) ">
<g transform="matrix( 0.13568115234375, -0.13568115234375, 0.13568115234375, 0.13568115234375, -6.1,23.6) ">
<use xlink:href="#buttons_bFullScreen_0_Layer0_0_MEMBER_0_FILL"/>
</g>

<g transform="matrix( -0.13568115234375, 0.13568115234375, -0.13568115234375, -0.13568115234375, 36.7,6.9) ">
<use xlink:href="#buttons_bFullScreen_0_Layer0_0_MEMBER_1_FILL"/>
</g>
</g>
</svg>
