
<svg xmlns="http://www.w3.org/2000/svg" version="1.1" xmlns:xlink="http://www.w3.org/1999/xlink" preserveAspectRatio="none" x="0px" y="0px" width="53px" height="53px" viewBox="0 0 53 53">
<defs>
<g id="Layer1_0_FILL">
<path fill="#000000" fill-opacity="0.09803921568627451" stroke="none" d="
M 31.5 -0.5
L 17.45 -0.5
Q 10 -0.5 4.7 4.75 -0.55 10.05 -0.55 17.5
L -0.55 31.5
Q -0.55 38.95 4.7 44.2 10 49.5 17.45 49.5
L 31.5 49.5
Q 38.95 49.5 44.2 44.2 49.5 38.95 49.5 31.5
L 49.5 17.5
Q 49.5 10.05 44.2 4.75 38.95 -0.5 31.5 -0.5 Z"/>
</g>

<g id="Layer1_1_FILL">
<path fill="#FFFFFF" stroke="none" d="
M 22.55 20.6
Q 21.7 19.75 20.45 19.75
L 18.45 19.75
Q 17.2 19.75 16.3 20.6 15.45 21.5 15.45 22.75
L 15.45 36.75
Q 15.45 38 16.3 38.85 17.2 39.75 18.45 39.75
L 20.45 39.75
Q 21.7 39.75 22.55 38.85 23.45 38 23.45 36.75
L 23.45 22.75
Q 23.45 21.5 22.55 20.6 Z"/>
</g>

<g id="Layer1_2_FILL">
<path fill="#FFFFFF" stroke="none" d="
M 22.55 20.6
Q 21.7 19.75 20.45 19.75
L 18.45 19.75
Q 17.2 19.75 16.3 20.6 15.45 21.5 15.45 22.75
L 15.45 36.75
Q 15.45 38 16.3 38.85 17.2 39.75 18.45 39.75
L 20.45 39.75
Q 21.7 39.75 22.55 38.85 23.45 38 23.45 36.75
L 23.45 22.75
Q 23.45 21.5 22.55 20.6 Z"/>
</g>

<path id="Layer1_0_1_STROKES" stroke="#FFFFFF" stroke-width="3" stroke-linejoin="round" stroke-linecap="round" fill="none" d="
M 19.48642044067383 1.5
L 33.52548675537109 1.5
Q 40.969689178466794 1.5 46.21560363769531 6.75 51.511479187011716 12.05 51.511479187011716 19.5
L 51.511479187011716 33.5
Q 51.511479187011716 40.95 46.21560363769531 46.2 40.969689178466794 51.5 33.52548675537109 51.5
L 19.48642044067383 51.5
Q 12.042218017578126 51.5 6.746342468261719 46.2 1.500428009033203 40.95 1.500428009033203 33.5
L 1.500428009033203 19.5
Q 1.500428009033203 12.05 6.746342468261719 6.75 12.042218017578126 1.5 19.48642044067383 1.5 Z"/>
</defs>

<g transform="matrix( 0.9992218017578125, 0, 0, 1, 2.05,2) ">
<use xlink:href="#Layer1_0_FILL"/>

<use xlink:href="#Layer1_0_1_STROKES" transform="matrix( 1.0007781982421875, 0, 0, 1, -2.05,-2) "/>
</g>

<g transform="matrix( 1, 0, 0, 1, 0.05,-2.75) ">
<use xlink:href="#Layer1_1_FILL"/>
</g>

<g transform="matrix( 1, 0, 0, 1, 15.05,-2.75) ">
<use xlink:href="#Layer1_2_FILL"/>
</g>
</svg>
