
<svg xmlns="http://www.w3.org/2000/svg" version="1.1" xmlns:xlink="http://www.w3.org/1999/xlink" preserveAspectRatio="none" x="0px" y="0px" width="53px" height="53px" viewBox="0 0 53 53">
<defs>
<g id="buttons_b_mute_0_Layer2_0_FILL">
<path fill="#000000" fill-opacity="0.09803921568627451" stroke="none" d="
M 31.5 -0.5
L 17.45 -0.5
Q 10 -0.5 4.7 4.75 -0.55 10.05 -0.55 17.5
L -0.55 31.5
Q -0.55 38.95 4.7 44.2 10 49.5 17.45 49.5
L 31.5 49.5
Q 38.95 49.5 44.2 44.2 49.5 38.95 49.5 31.5
L 49.5 17.5
Q 49.5 10.05 44.2 4.75 38.95 -0.5 31.5 -0.5 Z"/>
</g>

<g id="buttons_b_mute_0_Layer1_0_FILL">
<path fill="#FFFFFF" stroke="none" d="
M 25.85 9.7
Q 25.2 9.7 24.7 10.25
L 16 18.7 9.2 18.7
Q 8.5 18.7 8.05 19.25 7.5 19.75 7.5 20.4
L 7.5 29.55
Q 7.5 30.25 8.05 30.8 8.5 31.25 9.2 31.25
L 16 31.25 24.7 39.85
Q 25.2 40.3 25.85 40.3 26.55 40.3 27.1 39.85 27.5 39.3 27.5 38.65
L 27.5 11.35
Q 27.5 10.65 27.1 10.25 26.55 9.7 25.85 9.7 Z"/>
</g>

<path id="buttons_b_mute_0_Layer2_0_1_STROKES" stroke="#FFFFFF" stroke-width="3" stroke-linejoin="round" stroke-linecap="round" fill="none" d="
M 18.48642044067383 0.5
L 32.52548675537109 0.5
Q 39.969689178466794 0.5 45.21560363769531 5.75 50.511479187011716 11.05 50.511479187011716 18.5
L 50.511479187011716 32.5
Q 50.511479187011716 39.95 45.21560363769531 45.2 39.969689178466794 50.5 32.52548675537109 50.5
L 18.48642044067383 50.5
Q 11.042218017578126 50.5 5.746342468261719 45.2 0.5004280090332032 39.95 0.5004280090332032 32.5
L 0.5004280090332032 18.5
Q 0.5004280090332032 11.05 5.746342468261719 5.75 11.042218017578126 0.5 18.48642044067383 0.5 Z"/>

<path id="buttons_mc_mutelines_0_Layer0_0_1_STROKES" stroke="#FFFFFF" stroke-width="3" stroke-linejoin="round" stroke-linecap="square" fill="none" d="
M 0 6.9
Q 2.2 10.85 0 14.85
M 4.5 0
Q 10.95 9.9 4.5 20.1"/>
</defs>

<g id="b_mute" transform="matrix( 1, 0, 0, 1, 1,1) ">
<g transform="matrix( 0.9992218017578125, 0, 0, 1, 1.05,1) ">
<use xlink:href="#buttons_b_mute_0_Layer2_0_FILL"/>

<use xlink:href="#buttons_b_mute_0_Layer2_0_1_STROKES" transform="matrix( 1.0007781982421875, 0, 0, 1, -1.05,-1) "/>
</g>

<g transform="matrix( 1, 0, 0, 1, 0,0) ">
<use xlink:href="#buttons_b_mute_0_Layer1_0_FILL"/>
</g>
</g>

<g id="mc_mutelines" transform="matrix( 1, 0, 0, 1, 31.9,14.95) ">
<g transform="matrix( 1, 0, 0, 1, 0,0) ">
<use xlink:href="#buttons_mc_mutelines_0_Layer0_0_1_STROKES"/>
</g>
</g>
</svg>
