
<svg xmlns="http://www.w3.org/2000/svg" version="1.1" xmlns:xlink="http://www.w3.org/1999/xlink" preserveAspectRatio="none" x="0px" y="0px" width="53px" height="53px" viewBox="0 0 53 53">
<defs>
<g id="Layer3_0_FILL">
<path fill="#FFFFFF" fill-opacity="0.09803921568627451" stroke="none" d="
M 31.5 -0.5
L 17.45 -0.5
Q 10 -0.5 4.7 4.75 -0.55 10.05 -0.55 17.5
L -0.55 31.5
Q -0.55 38.95 4.7 44.2 10 49.5 17.45 49.5
L 31.5 49.5
Q 38.95 49.5 44.2 44.2 49.5 38.95 49.5 31.5
L 49.5 17.5
Q 49.5 10.05 44.2 4.75 38.95 -0.5 31.5 -0.5 Z"/>
</g>

<g id="Layer3_1_FILL">
<path fill="#FFFFFF" stroke="none" d="
M 25.85 9.7
Q 25.2 9.7 24.7 10.25
L 16 18.7 9.2 18.7
Q 8.5 18.7 8.05 19.25 7.5 19.75 7.5 20.4
L 7.5 29.55
Q 7.5 30.25 8.05 30.8 8.5 31.25 9.2 31.25
L 16 31.25 24.7 39.85
Q 25.2 40.3 25.85 40.3 26.55 40.3 27.1 39.85 27.5 39.3 27.5 38.65
L 27.5 11.35
Q 27.5 10.65 27.1 10.25 26.55 9.7 25.85 9.7 Z"/>
</g>

<path id="Layer3_0_1_STROKES" stroke="#FFFFFF" stroke-width="3" stroke-linejoin="round" stroke-linecap="round" fill="none" d="
M 19.48642044067383 1.5
L 33.52548675537109 1.5
Q 40.969689178466794 1.5 46.21560363769531 6.75 51.511479187011716 12.05 51.511479187011716 19.5
L 51.511479187011716 33.5
Q 51.511479187011716 40.95 46.21560363769531 46.2 40.969689178466794 51.5 33.52548675537109 51.5
L 19.48642044067383 51.5
Q 12.042218017578126 51.5 6.746342468261719 46.2 1.500428009033203 40.95 1.500428009033203 33.5
L 1.500428009033203 19.5
Q 1.500428009033203 12.05 6.746342468261719 6.75 12.042218017578126 1.5 19.48642044067383 1.5 Z"/>
</defs>

<g transform="matrix( 0.9992218017578125, 0, 0, 1, 2.05,2) ">
<use xlink:href="#Layer3_0_FILL"/>

<use xlink:href="#Layer3_0_1_STROKES" transform="matrix( 1.0007781982421875, 0, 0, 1, -2.05,-2) "/>
</g>

<g transform="matrix( 1, 0, 0, 1, 1,1) ">
<use xlink:href="#Layer3_1_FILL"/>
</g>
</svg>
